<svg xmlns="http://www.w3.org/2000/svg" xmlns:svg="http://www.w3.org/2000/svg" xmlns:xlink="http://www.w3.org/1999/xlink" width="160" height="20" version="1.0" viewBox="0 0 128 16" xml:space="preserve"><g><path fill="#172b4d" fill-opacity="1" d="M-22.949-5.576l4.525,4.525L-41.051,21.576l-4.525-4.525Zm19.2,0L0.776-1.051-21.851,21.576l-4.526-4.525Zm19.2,0,4.525,4.525L-2.651,21.576l-4.525-4.525Zm19.2,0,4.525,4.525L16.549,21.576l-4.525-4.525Zm19.2,0,4.525,4.525L35.749,21.576l-4.526-4.525Zm38.4,0,4.525,4.525L74.149,21.576l-4.525-4.525Zm-19.2,0,4.525,4.525L54.949,21.576l-4.526-4.525Zm38.4,0,4.525,4.525L93.349,21.576l-4.526-4.525Zm19.2,0,4.525,4.525L112.549,21.576l-4.525-4.525Zm19.2,0,4.525,4.525L131.749,21.576l-4.525-4.525Z"/><animateTransform attributeName="transform" dur="1320ms" from="0 0" repeatCount="indefinite" to="-19 0" type="translate"/></g></svg>