<?xml version="1.0" encoding="UTF-8" standalone="no"?>
<!DOCTYPE svg PUBLIC "-//W3C//DTD SVG 1.1//EN"
 "http://www.w3.org/Graphics/SVG/1.1/DTD/svg11.dtd">
<!-- Generated by graphviz version 2.42.4 (0)
 -->
<!-- Title: G Pages: 1 -->
<svg width="885pt" height="447pt"
 viewBox="0.00 0.00 885.20 447.20" xmlns="http://www.w3.org/2000/svg" xmlns:xlink="http://www.w3.org/1999/xlink">
<g id="graph0" class="graph" transform="scale(1 1) rotate(0) translate(21.6 425.6)">
<title>G</title>
<polygon fill="#0d1117" stroke="transparent" points="-21.6,21.6 -21.6,-425.6 863.6,-425.6 863.6,21.6 -21.6,21.6"/>
<g id="clust1" class="cluster">
<title>cluster_clients</title>
<polygon fill="#0d1117" stroke="#30363d" stroke-dasharray="5,2" points="8,-321 8,-396 402,-396 402,-321 8,-321"/>
<text text-anchor="middle" x="205" y="-382.4" font-family="DejaVu Sans,sans-serif" font-size="12.00" fill="#58a6ff">Multiple Agents (MCP Clients)</text>
</g>
<g id="clust2" class="cluster">
<title>cluster_mcp</title>
<polygon fill="#0d1117" stroke="#ff7b72" stroke-width="2" points="33,-109 33,-293 470,-293 470,-109 33,-109"/>
<text text-anchor="middle" x="251.5" y="-279.4" font-family="DejaVu Sans,sans-serif" font-size="12.00" fill="#ff7b72">Nouva Memory Engine</text>
</g>
<g id="clust3" class="cluster">
<title>cluster_lanes</title>
<polygon fill="#0d1117" stroke="#30363d" stroke-width="2" stroke-dasharray="1,5" points="41,-117 41,-190 462,-190 462,-117 41,-117"/>
<text text-anchor="middle" x="251.5" y="-178" font-family="DejaVu Sans,sans-serif" font-size="10.00" fill="#8b949e">Dual&#45;Lane Processing</text>
</g>
<g id="clust4" class="cluster">
<title>cluster_storage</title>
<polygon fill="#0d1117" stroke="#30363d" stroke-dasharray="5,2" points="284,-8 284,-83 703,-83 703,-8 284,-8"/>
<text text-anchor="middle" x="493.5" y="-69.4" font-family="DejaVu Sans,sans-serif" font-size="12.00" fill="#7ee787">Storage &amp; Database</text>
</g>
<g id="clust5" class="cluster">
<title>cluster_sync</title>
<polygon fill="#0d1117" stroke="#30363d" stroke-dasharray="1,5" points="483,-117 483,-190 633,-190 633,-117 483,-117"/>
<text text-anchor="middle" x="558" y="-178" font-family="DejaVu Sans,sans-serif" font-size="10.00" fill="#8b949e">Sync Pipeline (Background)</text>
</g>
<!-- openclaw -->
<g id="node1" class="node">
<title>openclaw</title>
<polygon fill="#1f242c" stroke="#58a6ff" stroke-width="1.5" points="136,-367 16,-367 16,-329 136,-329 136,-367"/>
<text text-anchor="middle" x="76" y="-351.2" font-family="DejaVu Sans,sans-serif" font-size="11.00" fill="#e6edf3">OpenClaw</text>
<text text-anchor="middle" x="76" y="-339.2" font-family="DejaVu Sans,sans-serif" font-size="11.00" fill="#e6edf3">(Daily Assistant)</text>
</g>
<!-- fastmcp -->
<g id="node4" class="node">
<title>fastmcp</title>
<polygon fill="#21262d" stroke="#ff7b72" stroke-width="2.5" points="311,-264 133,-264 133,-226 311,-226 311,-264"/>
<text text-anchor="middle" x="222" y="-248.2" font-family="DejaVu Sans,sans-serif" font-size="11.00" fill="#e6edf3">FastMCP Server</text>
<text text-anchor="middle" x="222" y="-236.2" font-family="DejaVu Sans,sans-serif" font-size="11.00" fill="#e6edf3">(Python / Unified Interface)</text>
</g>
<!-- openclaw&#45;&gt;fastmcp -->
<g id="edge1" class="edge">
<title>openclaw&#45;&gt;fastmcp</title>
<path fill="none" stroke="#58a6ff" stroke-width="1.5" d="M102.1,-328.94C126.35,-312.17 162.56,-287.12 188.84,-268.94"/>
<polygon fill="#58a6ff" stroke="#58a6ff" stroke-width="1.5" points="190.65,-271.1 195.63,-264.24 187.46,-266.49 190.65,-271.1"/>
<text text-anchor="middle" x="170" y="-303.8" font-family="DejaVu Sans,sans-serif" font-size="9.00" fill="#8b949e">MCP Protocol</text>
</g>
<!-- cursor -->
<g id="node2" class="node">
<title>cursor</title>
<polygon fill="#1f242c" stroke="#30363d" stroke-width="1.5" points="265,-366 179,-366 179,-330 265,-330 265,-366"/>
<text text-anchor="middle" x="222" y="-345.2" font-family="DejaVu Sans,sans-serif" font-size="11.00" fill="#e6edf3">Cursor IDE</text>
</g>
<!-- cursor&#45;&gt;fastmcp -->
<g id="edge2" class="edge">
<title>cursor&#45;&gt;fastmcp</title>
<path fill="none" stroke="#30363d" stroke-width="1.5" d="M222,-329.87C222,-314.2 222,-290.77 222,-272.65"/>
<polygon fill="#30363d" stroke="#30363d" stroke-width="1.5" points="224.8,-272.24 222,-264.24 219.2,-272.24 224.8,-272.24"/>
<text text-anchor="middle" x="251" y="-303.8" font-family="DejaVu Sans,sans-serif" font-size="9.00" fill="#8b949e">MCP Protocol</text>
</g>
<!-- zed -->
<g id="node3" class="node">
<title>zed</title>
<polygon fill="#1f242c" stroke="#30363d" stroke-width="1.5" points="394,-366 308,-366 308,-330 394,-330 394,-366"/>
<text text-anchor="middle" x="351" y="-345.2" font-family="DejaVu Sans,sans-serif" font-size="11.00" fill="#e6edf3">Zed Editor</text>
</g>
<!-- zed&#45;&gt;fastmcp -->
<g id="edge3" class="edge">
<title>zed&#45;&gt;fastmcp</title>
<path fill="none" stroke="#30363d" stroke-width="1.5" d="M329.12,-329.87C307.83,-313.2 275.33,-287.75 251.71,-269.26"/>
<polygon fill="#30363d" stroke="#30363d" stroke-width="1.5" points="253.33,-266.97 245.3,-264.24 249.87,-271.38 253.33,-266.97"/>
<text text-anchor="middle" x="330" y="-303.8" font-family="DejaVu Sans,sans-serif" font-size="9.00" fill="#8b949e">MCP Protocol</text>
</g>
<!-- semantic -->
<g id="node5" class="node">
<title>semantic</title>
<polygon fill="#1f2937" stroke="#bc8cff" stroke-width="1.5" points="453.5,-163 292.5,-163 292.5,-125 453.5,-125 453.5,-163"/>
<text text-anchor="middle" x="373" y="-147.2" font-family="DejaVu Sans,sans-serif" font-size="11.00" fill="#e6edf3">Lane 1: Semantic Recall</text>
<text text-anchor="middle" x="373" y="-135.2" font-family="DejaVu Sans,sans-serif" font-size="11.00" fill="#e6edf3">(Context / Dates)</text>
</g>
<!-- fastmcp&#45;&gt;semantic -->
<g id="edge4" class="edge">
<title>fastmcp&#45;&gt;semantic</title>
<path fill="none" stroke="#bc8cff" stroke-width="1.5" d="M250.25,-225.95C259.15,-220.23 269,-213.88 278,-208 298.33,-194.72 321,-179.7 339.09,-167.65"/>
<polygon fill="#bc8cff" stroke="#bc8cff" stroke-width="1.5" points="340.94,-169.79 346.04,-163.03 337.83,-165.13 340.94,-169.79"/>
<text text-anchor="middle" x="326.5" y="-200.8" font-family="DejaVu Sans,sans-serif" font-size="9.00" fill="#8b949e">Semantic Query</text>
</g>
<!-- analytics -->
<g id="node6" class="node">
<title>analytics</title>
<polygon fill="#1e293b" stroke="#38bdf8" stroke-width="1.5" points="249,-163 49,-163 49,-125 249,-125 249,-163"/>
<text text-anchor="middle" x="149" y="-147.2" font-family="DejaVu Sans,sans-serif" font-size="11.00" fill="#e6edf3">Lane 2: Deterministic Analytics</text>
<text text-anchor="middle" x="149" y="-135.2" font-family="DejaVu Sans,sans-serif" font-size="11.00" fill="#e6edf3">(SQL Agregations / Trends)</text>
</g>
<!-- fastmcp&#45;&gt;analytics -->
<g id="edge5" class="edge">
<title>fastmcp&#45;&gt;analytics</title>
<path fill="none" stroke="#38bdf8" stroke-width="1.5" d="M208.61,-225.84C196.98,-210.07 180.04,-187.09 167.18,-169.66"/>
<polygon fill="#38bdf8" stroke="#38bdf8" stroke-width="1.5" points="169.31,-167.82 162.3,-163.04 164.8,-171.14 169.31,-167.82"/>
<text text-anchor="middle" x="231.5" y="-200.8" font-family="DejaVu Sans,sans-serif" font-size="9.00" fill="#8b949e">Structured Args</text>
</g>
<!-- postgres -->
<g id="node7" class="node">
<title>postgres</title>
<polygon fill="#161b22" stroke="#7ee787" stroke-width="1.5" points="455.5,-54 292.5,-54 292.5,-16 455.5,-16 455.5,-54"/>
<text text-anchor="middle" x="374" y="-38.2" font-family="DejaVu Sans,sans-serif" font-size="11.00" fill="#e6edf3">PostgreSQL</text>
<text text-anchor="middle" x="374" y="-26.2" font-family="DejaVu Sans,sans-serif" font-size="11.00" fill="#e6edf3">(pgvector + SQL Tables)</text>
</g>
<!-- semantic&#45;&gt;postgres -->
<g id="edge6" class="edge">
<title>semantic&#45;&gt;postgres</title>
<path fill="none" stroke="#bc8cff" stroke-width="1.5" d="M318.89,-124.98C287.18,-114.3 253.1,-102.54 252,-101 236.8,-79.64 256.79,-64.67 284.7,-54.53"/>
<polygon fill="#bc8cff" stroke="#bc8cff" stroke-width="1.5" points="285.68,-57.16 292.35,-51.93 283.88,-51.85 285.68,-57.16"/>
<text text-anchor="middle" x="293.5" y="-93.8" font-family="DejaVu Sans,sans-serif" font-size="9.00" fill="#8b949e">pgvector Distance</text>
</g>
<!-- analytics&#45;&gt;postgres -->
<g id="edge7" class="edge">
<title>analytics&#45;&gt;postgres</title>
<path fill="none" stroke="#38bdf8" stroke-width="1.5" d="M161.13,-124.79C169.46,-113.58 181.42,-99.75 195,-91 221.84,-73.71 254.44,-61.59 284.42,-53.22"/>
<polygon fill="#38bdf8" stroke="#38bdf8" stroke-width="1.5" points="285.4,-55.85 292.39,-51.06 283.94,-50.45 285.4,-55.85"/>
<text text-anchor="middle" x="216" y="-93.8" font-family="DejaVu Sans,sans-serif" font-size="9.00" fill="#8b949e">Pure SQL</text>
</g>
<!-- postgres&#45;&gt;semantic -->
<g id="edge10" class="edge">
<title>postgres&#45;&gt;semantic</title>
<path fill="none" stroke="#8b949e" stroke-width="1.5" stroke-dasharray="5,2" d="M373.75,-62.39C373.57,-81.81 373.33,-107.71 373.17,-124.85"/>
<polygon fill="#8b949e" stroke="#8b949e" stroke-width="1.5" points="376.55,-62.27 373.83,-54.24 370.95,-62.21 376.55,-62.27"/>
</g>
<!-- nas -->
<g id="node8" class="node">
<title>nas</title>
<polygon fill="#161b22" stroke="#e3b341" stroke-width="1.5" points="695,-54 499,-54 499,-16 695,-16 695,-54"/>
<text text-anchor="middle" x="597" y="-38.2" font-family="DejaVu Sans,sans-serif" font-size="11.00" fill="#e6edf3">NAS Archive</text>
<text text-anchor="middle" x="597" y="-26.2" font-family="DejaVu Sans,sans-serif" font-size="11.00" fill="#e6edf3">(Raw Logs / Markdown / JSON)</text>
</g>
<!-- nas&#45;&gt;semantic -->
<g id="edge11" class="edge">
<title>nas&#45;&gt;semantic</title>
<path fill="none" stroke="#bc8cff" stroke-width="1.5" stroke-dasharray="5,2" d="M591.3,-54.19C585.5,-69.42 574.93,-90.34 558,-101 541.95,-111.11 491.55,-105.03 473,-109 457.58,-112.3 441.23,-117.22 426.32,-122.3"/>
<polygon fill="#bc8cff" stroke="#bc8cff" stroke-width="1.5" points="425.3,-119.69 418.67,-124.96 427.14,-124.98 425.3,-119.69"/>
<text text-anchor="middle" x="624" y="-93.8" font-family="DejaVu Sans,sans-serif" font-size="9.00" fill="#8b949e">Load Summaries (Tier 2)</text>
</g>
<!-- auto_sync -->
<g id="node9" class="node">
<title>auto_sync</title>
<polygon fill="#21262d" stroke="#db6d28" stroke-width="1.5" points="610.5,-163 509.5,-163 509.5,-125 610.5,-125 610.5,-163"/>
<text text-anchor="middle" x="560" y="-147.2" font-family="DejaVu Sans,sans-serif" font-size="11.00" fill="#e6edf3">auto_sync.py</text>
<text text-anchor="middle" x="560" y="-135.2" font-family="DejaVu Sans,sans-serif" font-size="11.00" fill="#e6edf3">(Cron Job)</text>
</g>
<!-- auto_sync&#45;&gt;postgres -->
<g id="edge8" class="edge">
<title>auto_sync&#45;&gt;postgres</title>
<path fill="none" stroke="#db6d28" stroke-width="1.5" d="M517.54,-124.9C503.25,-119.27 487.1,-113.39 472,-109 454.59,-103.94 447.74,-110.01 432,-101 414.97,-91.25 400.3,-74.68 389.97,-60.72"/>
<polygon fill="#db6d28" stroke="#db6d28" stroke-width="1.5" points="392.19,-59 385.26,-54.11 387.63,-62.25 392.19,-59"/>
<text text-anchor="middle" x="492" y="-93.8" font-family="DejaVu Sans,sans-serif" font-size="9.00" fill="#8b949e">Index Chunks &amp; SQL Rows</text>
</g>
<!-- auto_sync&#45;&gt;nas -->
<g id="edge9" class="edge">
<title>auto_sync&#45;&gt;nas</title>
<path fill="none" stroke="#db6d28" stroke-width="1.5" d="M610.53,-136.3C651.62,-129.7 704.85,-118.1 718,-101 733.02,-81.47 716.21,-67.12 690.82,-56.95"/>
<polygon fill="#db6d28" stroke="#db6d28" stroke-width="1.5" points="691.55,-54.23 683.07,-54.05 689.59,-59.48 691.55,-54.23"/>
<text text-anchor="middle" x="782" y="-93.8" font-family="DejaVu Sans,sans-serif" font-size="9.00" fill="#8b949e">Archive Raw &amp; Summaries</text>
</g>
</g>
</svg>
